<?xml version="1.0" encoding="utf-8"?>
<svg width="800px" height="800px" viewBox="0 0 52 52" xmlns="http://www.w3.org/2000/svg" enable-background="new 0 0 52 52" xml:space="preserve">
  <path d="M34.8,22.4c-0.9,0-1.65-0.75-1.65-1.65V11.625c0-0.9,0.75-1.65,1.65-1.65h10.65c0.9,0,1.65,0.75,1.65,1.65v9.125
    c0,0.9-0.75,1.65-1.65,1.65H34.8z" fill="#4285F4"/>
  <path d="M39.525,31.35l-6.15,6.675c-0.375,0.375-0.375,0.975,0,1.425l6.15,6.675c0.375,0.45,1.125,0.45,1.5,0l6.15-6.675
    c0.375-0.375,0.375-0.975,0-1.425l-6.15-6.675C40.65,30.9,39.975,30.9,39.525,31.35z" fill="#34A853"/>
  <circle cx="15.75" cy="38.55" r="6.975" fill="#FBBC05"/>
  <path d="M9.6,13.875l5.4-3.075c0.525-0.3,1.125-0.3,1.575,0l5.325,3.075c0.525,0.3,0.825,0.825,0.825,1.425v6.15
    c0,0.6-0.3,1.125-0.825,1.425l-5.325,3.075c-0.525,0.3-1.125,0.3-1.575,0l-5.4-3.075c-0.525-0.3-0.825-0.825-0.825-1.425v-6.15
    C8.775,14.7,9.075,14.175,9.6,13.875z" fill="#EA4335"/>
</svg>